HIERARCHY
ROOT Hips
{
	OFFSET 0.000000 89.005402 0.000000
	CHANNELS 6 Xposition Yposition Zposition Xrotation Yrotation Zrotation
	JOINT Spine
	{
		OFFSET 0.116900 10.681000 0.373400
		CHANNELS 3 Xrotation Yrotation Zrotation
		JOINT Spine1
		{
			OFFSET 0.000000 13.840401 0.053500
			CHANNELS 3 Xrotation Yrotation Zrotation
			JOINT Spine2
			{
				OFFSET 0.000000 14.712700 -0.366200
				CHANNELS 3 Xrotation Yrotation Zrotation
				JOINT Neck
				{
					OFFSET 0.000000 35.415497 -3.314200
					CHANNELS 3 Xrotation Yrotation Zrotation
					JOINT Head
					{
						OFFSET 0.000000 16.899200 1.218300
						CHANNELS 3 Xrotation Yrotation Zrotation
						JOINT HeadTop_End
						{
							OFFSET 0.000000 22.206207 2.192500
							CHANNELS 3 Xrotation Yrotation Zrotation
							End Site
							{
								OFFSET 0.000000 22.314178 0.000000
							}
						}
					}
				}
				JOINT LeftShoulder
				{
					OFFSET 12.896400 26.716293 -4.548400
					CHANNELS 3 Xrotation Yrotation Zrotation
					JOINT LeftArm
					{
						OFFSET 19.027000 -4.857010 -1.718400
						CHANNELS 3 Xrotation Yrotation Zrotation
						JOINT LeftForeArm
						{
							OFFSET 24.179897 0.000000 0.000000
							CHANNELS 3 Xrotation Yrotation Zrotation
							JOINT LeftHand
							{
								OFFSET 27.156403 0.000000 0.000000
								CHANNELS 3 Xrotation Yrotation Zrotation
								JOINT LeftHandIndex1
								{
									OFFSET 16.441200 0.000000 0.000000
									CHANNELS 3 Xrotation Yrotation Zrotation
									JOINT LeftHandIndex2
									{
										OFFSET 4.821899 0.000000 0.000000
										CHANNELS 3 Xrotation Yrotation Zrotation
										JOINT LeftHandIndex3
										{
											OFFSET 6.386497 0.000000 0.000000
											CHANNELS 3 Xrotation Yrotation Zrotation
											JOINT LeftHandIndex4
											{
												OFFSET 5.188988 0.000000 0.000000
												CHANNELS 3 Xrotation Yrotation Zrotation
												End Site
												{
													OFFSET -0.178703 5.185913 0.000177
												}
											}
										}
									}
								}
								JOINT LeftHandThumb1
								{
									OFFSET 6.534897 -5.032593 5.900300
									CHANNELS 3 Xrotation Yrotation Zrotation
									JOINT LeftHandThumb2
									{
										OFFSET 3.818176 -2.204422 2.204423
										CHANNELS 3 Xrotation Yrotation Zrotation
										JOINT LeftHandThumb3
										{
											OFFSET 3.252098 -1.877594 1.877601
											CHANNELS 3 Xrotation Yrotation Zrotation
											JOINT LeftHandThumb4
											{
												OFFSET 5.251778 -3.032120 3.032117
												CHANNELS 3 Xrotation Yrotation Zrotation
												End Site
												{
													OFFSET 0.000023 6.780014 0.000000
												}
											}
										}
									}
								}
							}
						}
					}
				}
				JOINT RightShoulder
				{
					OFFSET -12.896300 26.716293 -4.548400
					CHANNELS 3 Xrotation Yrotation Zrotation
					JOINT RightArm
					{
						OFFSET -19.027000 -4.857010 -1.718400
						CHANNELS 3 Xrotation Yrotation Zrotation
						JOINT RightForeArm
						{
							OFFSET -24.179897 0.000000 0.000000
							CHANNELS 3 Xrotation Yrotation Zrotation
							JOINT RightHand
							{
								OFFSET -27.156403 0.000000 0.000000
								CHANNELS 3 Xrotation Yrotation Zrotation
								JOINT RightHandThumb1
								{
									OFFSET -6.591202 -4.852203 5.988100
									CHANNELS 3 Xrotation Yrotation Zrotation
									JOINT RightHandThumb2
									{
										OFFSET -3.818176 -2.204422 2.204423
										CHANNELS 3 Xrotation Yrotation Zrotation
										JOINT RightHandThumb3
										{
											OFFSET -3.252098 -1.877594 1.877601
											CHANNELS 3 Xrotation Yrotation Zrotation
											JOINT RightHandThumb4
											{
												OFFSET -5.251778 -3.032120 3.032117
												CHANNELS 3 Xrotation Yrotation Zrotation
												End Site
												{
													OFFSET -0.000023 6.780014 0.000000
												}
											}
										}
									}
								}
								JOINT RightHandIndex1
								{
									OFFSET -16.029404 0.000000 0.000000
									CHANNELS 3 Xrotation Yrotation Zrotation
									JOINT RightHandIndex2
									{
										OFFSET -5.213303 0.000000 0.000000
										CHANNELS 3 Xrotation Yrotation Zrotation
										JOINT RightHandIndex3
										{
											OFFSET -6.386528 0.000000 0.000000
											CHANNELS 3 Xrotation Yrotation Zrotation
											JOINT RightHandIndex4
											{
												OFFSET -5.189026 0.000000 0.000000
												CHANNELS 3 Xrotation Yrotation Zrotation
												End Site
												{
													OFFSET 0.236702 5.183624 0.001972
												}
											}
										}
									}
								}
							}
						}
					}
				}
			}
		}
	}
	JOINT LeftUpLeg
	{
		OFFSET 14.073000 -7.904099 -1.463000
		CHANNELS 3 Xrotation Yrotation Zrotation
		JOINT LeftLeg
		{
			OFFSET -0.109806 -34.073280 4.093200
			CHANNELS 3 Xrotation Yrotation Zrotation
			JOINT LeftFoot
			{
				OFFSET 0.109806 -29.899420 -6.319000
				CHANNELS 3 Xrotation Yrotation Zrotation
				JOINT LeftToeBase
				{
					OFFSET 1.551100 -14.988700 20.535801
					CHANNELS 3 Xrotation Yrotation Zrotation
					JOINT LeftToe_End
					{
						OFFSET 0.221200 0.570800 13.248301
						CHANNELS 3 Xrotation Yrotation Zrotation
						End Site
						{
							OFFSET 0.000000 13.262435 0.000000
						}
					}
				}
			}
		}
	}
	JOINT RightUpLeg
	{
		OFFSET -13.839300 -7.904099 -1.463000
		CHANNELS 3 Xrotation Yrotation Zrotation
		JOINT RightLeg
		{
			OFFSET 0.109694 -34.073219 4.093300
			CHANNELS 3 Xrotation Yrotation Zrotation
			JOINT RightFoot
			{
				OFFSET -0.109694 -29.899384 -6.319200
				CHANNELS 3 Xrotation Yrotation Zrotation
				JOINT RightToeBase
				{
					OFFSET -1.551100 -14.988700 20.535801
					CHANNELS 3 Xrotation Yrotation Zrotation
					JOINT RightToe_End
					{
						OFFSET -0.221200 0.570900 13.248299
						CHANNELS 3 Xrotation Yrotation Zrotation
						End Site
						{
							OFFSET 0.000000 13.262440 0.000000
						}
					}
				}
			}
		}
	}
}
MOTION
Frames: 7
Frame Time: 0.033333
0.422544 87.500221 1.222136 -3.753270 -5.221488 -3.385780 3.303764 1.519462 2.354359 1.146035 0.329155 1.552971 1.124022 0.344788 1.554511 5.622641 -0.076962 0.463942 -7.551207 1.374827 -0.081623 0.000000 0.000000 -0.000000 1.046097 -17.446006 -12.316926 3.915802 -19.989399 -69.767589 -0.000008 -1.453281 0.000028 -33.228314 -1.359601 -6.191161 -0.407818 -0.912724 -7.567461 0.268844 1.755997 -17.407483 0.057696 0.821052 -8.039007 -0.000001 -0.000000 0.000003 -0.666102 2.158571 4.837380 11.859648 25.414856 17.056673 -13.811975 3.541897 9.030662 -0.000000 0.000001 0.000003 1.189531 15.344121 14.707060 13.162755 27.550886 58.780936 -0.000003 6.689780 -0.000014 -20.174734 -0.523590 6.792862 -1.664531 -0.169102 -4.216939 12.708025 -29.838177 -16.127706 -15.551986 -3.555852 -12.703327 0.000004 0.000000 0.000000 -0.390924 1.215756 6.807091 0.214623 -1.398900 17.443948 0.046096 -0.654339 8.059295 0.000001 0.000000 0.000001 -10.616807 14.621087 11.281957 14.387030 1.678740 4.177667 -0.897513 0.909967 -8.542922 -4.937034 -0.000004 0.000001 -0.000000 0.000000 0.000000 4.102687 -10.120682 2.623949 5.691692 -9.456002 -3.256509 -5.214989 -2.100353 4.572904 -2.008686 0.000010 -0.000001 -0.000000 -0.000000 -0.000000 
0.776815 87.317055 1.147099 -3.691579 -5.828502 -3.878078 4.460584 1.785907 3.246756 1.266901 0.353978 1.632947 1.246789 0.366047 1.633333 5.157152 -0.059512 0.402654 -9.245072 1.394409 -0.095871 -0.000000 -0.000000 -0.000000 0.881669 -16.517482 -12.981059 1.907533 -18.338578 -68.404187 0.000005 -2.107507 0.000007 -28.590409 -4.297600 -5.578227 -0.390617 -1.102699 -7.012281 0.307667 1.875275 -18.632710 0.091183 1.030701 -10.111370 -0.000001 -0.000001 -0.000003 -0.531022 1.805715 4.889319 11.354832 24.355208 15.833026 -13.487948 2.443845 9.309201 0.000000 -0.000001 -0.000001 1.006991 15.250378 15.378828 9.528058 27.033851 57.880655 -0.000012 4.844282 0.000009 -16.293826 2.555188 6.137725 -1.344996 0.205780 -4.880653 12.238115 -28.499862 -15.122208 -14.899496 -3.024314 -12.837388 -0.000001 0.000001 0.000002 -0.390023 1.134975 6.925185 0.216548 -1.405015 17.522814 0.059214 -0.741092 9.136571 0.000001 -0.000001 -0.000003 -11.594682 14.399051 11.839620 16.332085 2.285739 4.146375 -2.015353 0.989811 -8.460053 -4.937040 0.000006 -0.000003 -0.000000 -0.000001 -0.000000 3.471229 -10.064648 2.779221 6.416465 -8.703100 -3.267698 -5.269427 -2.304146 4.722176 -2.008686 -0.000000 -0.000001 -0.000000 -0.000000 -0.000000 
1.146915 86.507515 0.869586 -3.474567 -6.371791 -3.764017 6.136893 1.847325 3.664607 1.419537 0.314592 1.632293 1.400789 0.320728 1.633167 4.563849 -0.010889 0.310855 -11.577980 1.579246 -0.072301 0.000000 0.000000 -0.000000 0.732801 -15.745869 -13.593217 -0.394714 -17.060609 -66.619138 0.000001 -2.690483 0.000025 -24.314041 -7.701871 -4.156372 -0.370227 -1.292123 -6.456784 0.349034 1.993693 -19.858121 0.132243 1.238996 -12.184038 -0.000001 -0.000001 -0.000000 -1.082212 1.285531 5.125340 10.733024 23.413754 14.484004 -13.178847 1.319648 9.603188 0.000001 0.000001 0.000001 0.808882 15.130711 16.233881 4.838195 27.771493 56.959905 0.000002 2.331799 -0.000004 -11.751754 5.772766 5.304515 -1.111600 0.177842 -6.053168 11.774475 -27.167105 -14.104705 -14.247743 -2.495480 -12.982389 0.000001 -0.000001 -0.000002 -0.306296 0.856771 6.126068 0.202143 -1.358564 16.925455 0.069457 -0.802176 9.896886 -0.000000 -0.000000 0.000001 -13.985191 14.004991 11.995436 20.732505 2.856082 4.182626 -4.204592 1.156801 -8.365254 -4.937041 -0.000006 -0.000001 -0.000000 -0.000000 -0.000000 -0.202300 -9.952132 1.812765 12.664820 -8.033459 -3.192777 -8.040446 -2.874741 5.209486 -2.008685 0.000027 0.000001 0.000000 -0.000002 -0.000000 
1.639643 85.109627 0.479717 -2.790270 -6.466291 -3.033127 8.074511 1.603620 3.944365 1.546828 0.189144 1.566987 1.528581 0.188715 1.570399 3.897793 0.060475 0.061984 -14.754925 1.805944 -0.389781 -0.000000 -0.000000 -0.000000 0.584205 -15.548535 -14.045725 -2.562502 -16.598758 -64.664338 -0.000001 -3.282015 0.000021 -20.318939 -10.943019 -2.351374 -0.346647 -1.480969 -5.900942 0.392920 2.111203 -21.083699 0.180806 1.445671 -14.257022 -0.000002 0.000001 0.000002 -2.198936 0.602640 5.517219 10.024950 22.581246 13.020337 -12.881815 0.174537 9.911636 0.000001 0.000000 0.000002 0.716791 14.930794 16.272497 -0.620535 29.278337 57.182053 -0.000000 0.000000 0.000001 -6.007682 8.842161 4.050953 -0.963197 -0.179741 -7.652841 11.316585 -25.839852 -13.075724 -13.596560 -1.969527 -13.138204 -0.000003 -0.000001 -0.000002 -0.183275 0.389320 4.746383 0.180021 -1.283631 15.965958 0.079548 -0.858030 10.593832 0.000001 0.000000 0.000001 -17.800919 13.447077 11.570654 26.844163 3.179044 4.171507 -7.054359 1.348973 -8.011546 -4.937035 -0.000001 0.000003 -0.000001 -0.000000 0.000000 -5.762181 -9.748671 -0.050737 21.628634 -7.686289 -3.156268 -12.138847 -3.677220 6.057258 -2.008686 0.000009 0.000001 0.000000 0.000001 -0.000000 
2.078309 84.458878 0.123882 -1.281428 -5.680012 -2.500577 9.642145 1.190885 4.853953 1.623982 0.007493 1.570863 1.604903 0.002340 1.577253 3.284262 0.097764 -0.387032 -18.717172 1.342660 -0.705298 -0.000001 -0.000001 -0.000000 0.461451 -15.545772 -14.320655 -4.371385 -17.545235 -62.990730 -0.000002 -4.022107 -0.000015 -15.971007 -14.867952 0.771981 -0.319914 -1.669180 -5.344770 0.439324 2.227742 -22.309449 0.236825 1.650463 -16.330381 -0.000003 -0.000000 -0.000000 -3.758474 -0.244646 6.038415 9.259403 21.847064 11.455820 -12.594100 -0.986257 10.233667 0.000001 0.000001 -0.000002 0.640336 14.907171 16.043898 -5.259003 30.789448 57.843854 0.000002 0.000001 -0.000001 -0.584535 12.794587 2.207497 -0.898282 -0.792545 -9.599804 10.863921 -24.518154 -12.035699 -12.945789 -1.446646 -13.304821 0.000002 0.000001 -0.000001 -0.065719 -0.258094 3.123019 0.158143 -1.204580 14.958420 0.093390 -0.928946 11.481035 -0.000003 -0.000001 -0.000001 -21.070333 13.118848 10.906343 29.236761 2.726403 4.171458 -7.696775 1.334343 -7.291626 -4.937034 -0.000007 -0.000000 0.000000 0.000000 0.000000 -9.359334 -9.643010 -1.080342 25.114554 -8.069542 -3.157512 -13.443968 -4.256293 6.675960 -2.008682 0.000010 0.000000 0.000000 -0.000000 -0.000000 
2.441937 84.879990 -0.138774 0.223762 -3.967019 -1.629315 11.299647 0.989783 5.497299 1.813400 -0.092021 1.531608 1.795256 -0.098319 1.540711 2.893666 0.022656 -0.833405 -23.590780 -0.370689 -0.704073 -0.000000 0.000001 0.000000 0.455276 -15.823720 -13.756524 -6.518165 -20.441945 -62.403969 -0.000001 -4.715738 -0.000001 -7.717952 -18.590735 5.103443 -0.290019 -1.856719 -4.788188 0.488219 2.343273 -23.535372 0.300220 1.853097 -18.404158 -0.000003 0.000001 0.000001 -5.637081 -1.255260 6.659582 8.463138 21.198720 9.807043 -12.313065 -2.157442 10.568645 -0.000000 0.000001 0.000004 0.545857 15.167760 15.788039 -8.173903 31.553169 58.387087 0.000007 0.000012 0.000005 6.585075 17.050881 -0.327720 -0.913229 -1.586983 -11.814205 10.416005 -23.201973 -10.985139 -12.295258 -0.927022 -13.482200 -0.000001 -0.000000 0.000002 0.013848 -1.071653 1.592263 0.142931 -1.146176 14.217252 0.116211 -1.034921 12.812135 0.000001 -0.000002 -0.000001 -22.725241 12.561645 9.197534 27.885033 2.245717 4.198581 -4.848590 1.098992 -6.614768 -5.136334 0.000003 -0.000001 0.000000 0.000001 0.000000 -11.210658 -9.501936 -2.205913 24.946525 -8.775019 -3.216527 -12.138030 -5.101387 7.221293 -2.008691 -0.000003 0.000000 0.000000 -0.000001 0.000000 
2.878546 87.048004 -0.816108 2.945200 -0.109380 0.961517 13.457495 1.444502 4.946587 1.978641 0.025672 1.399745 1.965915 0.012599 1.407611 2.865798 -0.323256 -1.275474 -32.688712 -5.825652 0.331702 -0.000000 0.000000 -0.000001 0.532559 -16.210838 -12.604293 -6.914436 -23.038655 -63.131930 -0.000008 -11.970530 -0.000003 6.687052 -17.700799 9.404314 -0.256974 -2.043526 -4.231214 0.539577 2.457724 -24.761509 0.370932 2.053288 -20.478432 0.000001 0.000001 0.000001 -7.711634 -2.417738 7.346804 7.660919 20.621123 8.092456 -12.036158 -3.333705 10.916107 0.000000 -0.000000 0.000000 0.441786 15.740851 15.452755 -8.161279 29.374523 58.352020 -0.000004 3.411033 0.000002 11.842091 20.899184 -3.134702 -1.001085 -2.485264 -14.214424 9.972390 -21.891222 -9.924396 -11.644843 -0.410832 -13.670193 0.000001 0.000001 0.000002 0.046610 -2.015846 0.309519 0.135925 -1.118183 13.863033 0.151579 -1.179704 14.642472 0.000002 -0.000002 -0.000000 -25.664538 8.740288 4.274235 23.196058 4.306123 4.292063 7.881700 0.312000 -5.980426 -8.372243 -0.000517 0.013616 -0.000000 -0.000001 0.000000 -15.486204 -9.017060 -5.649199 24.225337 -9.238633 -3.570987 -5.569936 -7.180872 8.414379 -5.662523 0.000007 0.000001 0.000000 -0.000002 -0.000000 
